<?xml version="1.0" encoding="UTF-8"?>
<!-- Generated by Pixelmator Pro 3.6.14 -->
<svg width="1024" height="1024" viewBox="0 0 1024 1024" xmlns="http://www.w3.org/2000/svg">
    <path id="Shape" fill="#000000" fill-rule="evenodd" stroke="none" d="M 595.173706 770.803223 C 594.115234 770.969971 592.477783 770.3349 591.53479 769.391968 C 590.397766 768.254883 589.971252 766.64917 590.268433 764.62439 C 590.582764 762.482544 592.287048 760.217407 595.978149 757.035645 C 598.87207 754.541016 616.823364 736.931274 635.869873 717.902832 C 654.916443 698.87439 677.25 676.211304 685.5 667.540405 C 693.75 658.869507 700.623535 651.263184 700.774414 650.637573 C 700.978638 649.790894 650.924316 649.452026 505.040466 649.312256 C 345.079895 649.159058 308.523346 648.881836 306.266022 647.804871 C 304.441162 646.934204 303.394379 645.573364 303.189606 643.805237 C 302.964111 641.858032 303.547852 640.687134 305.324402 639.523071 C 307.547821 638.066284 325.60025 637.931946 504.384735 638.042236 C 612.523071 638.109009 701.074158 637.827393 701.164917 637.416443 C 701.255737 637.005493 692.426575 627.572815 681.544617 616.454895 C 670.662659 605.336975 653.7677 588.198853 644.000244 578.370239 C 634.232788 568.541626 618.265381 552.849976 608.516968 543.5 C 595.972107 531.467712 590.64093 525.686157 590.273071 523.714966 C 589.925781 521.853699 590.356506 520.26355 591.571533 518.920898 C 592.571533 517.81604 594.214722 517.044312 595.223022 517.205994 C 596.231445 517.367676 606.232788 526.5 617.448242 537.5 C 628.663696 548.5 642.425354 561.775024 648.029663 567 C 653.633911 572.224976 669.356812 588.148621 682.96936 602.385803 C 696.58197 616.622986 710.595154 631.390503 714.109741 635.202515 C 718.170715 639.607056 720.610046 643.146606 720.80188 644.913025 C 721.070129 647.382568 716.258301 652.53363 677.659607 691.096313 C 653.76532 714.968384 625.864014 742.599976 615.656738 752.5 C 605.449463 762.400024 596.232056 770.636475 595.173706 770.803223 Z M 427.688843 507 C 425.013306 507 421.874786 504.195923 403.061279 484.997192 C 391.202576 472.89563 380.293091 461.308105 378.817993 459.247192 C 377.342896 457.186218 362.031952 441.549988 344.793701 424.5 C 327.55545 407.450012 311.498138 391.968628 309.110779 390.097046 C 306.723419 388.225403 304.140808 385.187866 303.371643 383.347046 C 302.172943 380.478149 302.173676 379.535767 303.376831 376.75 C 304.156219 374.945435 314.133209 364.38269 325.809875 353 C 337.376007 341.724976 351.147766 328.450012 356.413757 323.5 C 361.679779 318.549988 379.667206 300.826477 396.385864 284.11438 C 424.020905 256.490234 427.019043 253.787964 429.376465 254.379639 C 431.0177 254.791565 432.199127 255.94519 432.595001 257.522522 C 432.977448 259.046265 432.619049 260.932434 431.672607 262.376892 C 430.821289 263.676147 417.834198 277.236572 402.812378 292.511108 C 387.790588 307.785645 366.5 328.75415 355.5 339.107666 C 344.5 349.461243 332.0047 361.186646 327.732635 365.164063 C 323.460571 369.141479 320.106659 372.820007 320.27951 373.338501 C 320.475189 373.925537 394.994263 374.203369 517.773438 374.074829 C 680.055359 373.904907 715.44397 374.103638 717.726563 375.197632 C 719.966614 376.271301 720.5 377.191772 720.5 379.983948 C 720.5 382.66748 719.940674 383.723877 718 384.705688 C 716.01001 385.712524 675.452026 385.973511 519.176697 385.985229 C 355.65686 385.997559 322.907379 386.223755 323.176666 387.339172 C 323.354492 388.075684 325.524994 391.085693 328 394.028015 C 330.475006 396.970337 355 422.008606 382.5 449.668701 C 410 477.328735 432.647034 500.893494 432.826782 502.034912 C 433.00647 503.17627 432.613892 504.760315 431.954315 505.555054 C 431.294739 506.349731 429.375305 507 427.688843 507 Z"/>
    <path id="path1" fill="#000000" fill-rule="evenodd" stroke="none" d="M 510.289429 943.870239 C 376.755249 943.798889 264.125 943.355347 260 942.884521 C 255.875 942.413696 247.595016 941.095581 241.600052 939.955322 C 235.605072 938.815125 225.453903 936.159546 219.041885 934.054016 C 212.629883 931.948486 202.471619 927.908813 196.467987 925.076904 C 190.464355 922.244995 182.165527 917.846741 178.026138 915.30304 C 173.886765 912.759399 167.125107 908.163086 163.000244 905.089111 C 158.875366 902.015076 154.215118 898.24939 152.644119 896.720825 C 151.07312 895.192261 148.512314 893.282043 146.953445 892.475952 C 145.394562 891.6698 143.316025 889.650696 142.334457 887.989014 C 141.35289 886.327393 138.863632 883.85199 136.80278 882.488159 C 134.741928 881.12439 132.381363 878.704346 131.557083 877.110352 C 130.732803 875.516418 128.807755 872.92688 127.279198 871.355896 C 125.750641 869.784912 121.984917 865.124634 118.910919 860.999756 C 115.836922 856.874878 111.240631 850.11322 108.696938 845.973877 C 106.153244 841.834473 101.78746 833.604431 98.995201 827.684814 C 96.202942 821.765259 92.301155 812.10199 90.324562 806.210938 C 88.347969 800.319946 85.670219 790.325012 84.374008 784 C 83.077789 777.674988 81.519058 766.650024 80.910141 759.5 C 80.124878 750.279236 79.918762 675.566772 80.201134 502.5 C 80.599236 258.5 80.599236 258.5 82.896515 246.5 C 84.160027 239.900024 86.72863 229.431213 88.604538 223.236084 C 90.480446 217.040894 94.006874 207.446777 96.441048 201.915771 C 98.875221 196.384827 103.16346 187.713806 105.970459 182.646851 C 108.777466 177.579834 113.758659 169.848938 117.039787 165.467102 C 120.320908 161.085205 124.595749 155.679382 126.539421 153.454224 C 128.483093 151.229065 130.883453 148.079102 131.873535 146.454224 C 132.863632 144.829407 134.857452 142.869324 136.304245 142.09845 C 137.751038 141.327637 140.07254 138.977661 141.46312 136.876343 C 142.853714 134.775024 145.295639 132.381348 146.889618 131.557068 C 148.483597 130.732788 151.07312 128.807739 152.644119 127.279175 C 154.215118 125.75061 158.875366 121.984924 163.000244 118.910889 C 167.125107 115.836914 173.886765 111.240662 178.026138 108.69696 C 182.165527 106.153259 190.464355 101.755005 196.467987 98.923096 C 202.471619 96.091187 212.609482 92.058228 218.996567 89.960876 C 225.383652 87.863525 235.30983 85.246094 241.054733 84.144348 C 246.799622 83.042603 255.869766 81.659363 261.210571 81.070557 C 267.840607 80.3396 347.400452 80 512 80 C 676.599548 80 756.159363 80.3396 762.789429 81.070557 C 768.130249 81.659363 777.200378 83.042603 782.945251 84.144348 C 788.690186 85.246094 798.616333 87.863525 805.003418 89.960876 C 811.390503 92.058228 821.528381 96.091187 827.532043 98.923096 C 833.535645 101.755005 841.834473 106.153259 845.973877 108.69696 C 850.11322 111.240662 856.874878 115.836914 860.999756 118.910889 C 865.124634 121.984924 869.784912 125.75061 871.355896 127.279175 C 872.92688 128.807739 875.501587 130.725159 877.077454 131.540039 C 878.65332 132.35498 881.051819 134.653931 882.40741 136.648926 C 883.763062 138.643921 886.07489 141.065125 887.5448 142.029358 C 889.014709 142.993652 891.035828 145.030212 892.036133 146.555054 C 893.036438 148.079956 895.461304 151.166321 897.424683 153.413757 C 899.388123 155.661194 903.679077 161.085205 906.960205 165.467102 C 910.241333 169.848938 915.222534 177.579834 918.029541 182.646851 C 920.836548 187.713806 925.124756 196.384827 927.55896 201.915771 C 929.993103 207.446777 933.519531 217.040894 935.395447 223.236084 C 937.271362 229.431213 939.839966 239.900024 941.103455 246.5 C 943.400757 258.5 943.400757 258.5 943.798889 502.5 C 944.081238 675.566772 943.875122 750.279236 943.089844 759.5 C 942.480957 766.650024 940.92218 777.674988 939.625977 784 C 938.329773 790.325012 935.652039 800.319946 933.675415 806.210938 C 931.698853 812.10199 927.797058 821.765259 925.004822 827.684814 C 922.212524 833.604431 917.846741 841.834473 915.30304 845.973877 C 912.759338 850.11322 908.163086 856.874878 905.089111 860.999756 C 902.015076 865.124634 898.24939 869.784912 896.720825 871.355896 C 895.192261 872.92688 893.267212 875.516418 892.442932 877.110352 C 891.618652 878.704346 889.258057 881.12439 887.197205 882.488159 C 885.136353 883.85199 882.647095 886.327393 881.665527 887.989014 C 880.68396 889.650696 878.605408 891.6698 877.04657 892.475952 C 875.487671 893.282043 872.92688 895.192261 871.355896 896.720825 C 869.784912 898.24939 865.124634 902.015076 860.999756 905.089111 C 856.874878 908.163086 850.11322 912.759399 845.973877 915.30304 C 841.834473 917.846741 833.535645 922.244995 827.532043 925.076904 C 821.528381 927.908813 811.390503 931.941772 805.003418 934.039124 C 798.616333 936.136475 788.690186 938.753906 782.945251 939.855652 C 777.200378 940.957397 768.130249 942.340637 762.789429 942.929443 C 756.123779 943.664307 676.946594 943.959351 510.289429 943.870239 Z M 599.45343 771.391602 C 600.527771 771.220703 614.842896 757.675171 631.264771 741.290405 C 647.686646 724.905701 674.707581 697.599487 691.31134 680.609924 C 720.680359 650.558594 721.509583 649.600525 721.853394 645.325684 C 722.206848 640.931519 722.206848 640.931519 709.565552 627.715759 C 702.612793 620.447083 687.97583 605.049988 677.03894 593.5 C 666.10199 581.950012 644.541443 559.925415 629.126587 544.556519 C 601.099609 516.612915 601.099609 516.612915 596.532715 516.45874 C 594.020874 516.373901 591.261475 516.81958 590.400635 517.448975 C 589.092834 518.405273 588.995667 519.474487 589.80957 523.952698 C 590.783691 529.311951 590.783691 529.311951 644.125366 582.606567 C 673.463318 611.918579 697.624451 636.373413 697.816895 636.950562 C 698.009277 637.527771 697.454102 638.036133 696.583191 638.080261 C 695.71228 638.12439 607.812256 638.084351 501.249847 637.991211 C 394.687439 637.898071 306.375 638.207581 305 638.679016 C 303.124695 639.321899 302.420471 640.359985 302.181763 642.833374 C 302.006744 644.646851 302.399353 646.776245 303.054199 647.565308 C 304.080933 648.80249 330.974731 649.001892 498.372437 649.013672 C 605.142578 649.021179 693.537964 649.305298 694.80658 649.645081 C 696.403931 650.072876 696.929016 650.760498 696.514282 651.881409 C 696.184875 652.771606 672.260315 677.17572 643.348511 706.112671 C 594.009216 755.494995 590.730164 758.994751 589.942322 763.112671 C 589.480652 765.525696 589.326904 768.261658 589.600647 769.192566 C 589.919312 770.276428 591.42926 771.032104 593.799133 771.293701 C 595.834595 771.518433 598.379028 771.5625 599.45343 771.391602 Z M 429.127563 507.943542 C 430.572723 507.974609 432.310181 507.331177 432.988556 506.513794 C 433.668274 505.694763 434.036346 503.437134 433.808441 501.484985 C 433.448059 498.397888 429.849579 494.329468 405.823639 469.845337 C 390.659454 454.391907 367.283112 430.568848 353.87619 416.90509 C 340.469299 403.241394 328.630127 390.930359 327.566956 389.547363 C 326.503815 388.164307 325.919464 386.747192 326.268433 386.398254 C 326.617401 386.049255 414.949219 385.841919 522.56134 385.937439 C 705.923706 386.10022 718.338501 386.003601 720.109863 384.400574 C 721.33905 383.288147 722 381.34552 722 378.845032 C 722 376.730286 721.549988 374.997742 721 374.994995 C 720.450012 374.992249 631.372498 374.879761 523.049988 374.744995 C 363.871765 374.546997 325.852722 374.252747 324.810638 373.210632 C 323.758148 372.158142 326.026215 369.494263 337.156097 358.710632 C 344.655243 351.444763 355.225433 341.556946 360.645447 336.737671 C 366.06546 331.918396 383.774994 314.469543 400 297.962463 C 416.225006 281.455444 430.299255 266.937927 431.276093 265.701355 C 432.25296 264.464844 433.311646 261.854492 433.628693 259.900574 C 434.045746 257.33075 433.742126 255.88501 432.531158 254.674011 C 431.610443 253.753296 429.380829 253 427.576447 253 C 425.772064 253 422.847168 254.012512 421.07666 255.25 C 419.306152 256.487488 393.99704 281.349976 364.834198 310.5 C 335.671356 339.650024 309.583191 366.135193 306.860474 369.355957 C 302.029114 375.071045 301.917145 375.351318 302.205048 381.007935 C 302.5 386.803955 302.5 386.803955 361.434631 446.151978 C 396.865326 481.831238 421.591766 505.976013 423.434631 506.693542 C 425.120575 507.350037 427.682404 507.912537 429.127563 507.943542 Z"/>
</svg>
